<svg width="495" height="195" viewBox="0 0 495 195" xmlns="http://www.w3.org/2000/svg">
<defs><style>text { font-family: -apple-system, BlinkMacSystemFont, "Segoe UI", Roboto, Helvetica, Arial, sans-serif; }.mono { font-family: "ui-monospace", "SFMono-Regular", "SF Mono", "JetBrains Mono", monospace; }</style></defs>
<rect width="495" height="195" rx="10" fill="#0d1117"/>
<rect x="0.5" y="0.5" width="494" height="194" rx="9.5" fill="none" stroke="#2d2d2d"/>
<rect width="495" height="38" rx="10" fill="#161b22"/>
<rect y="28" width="495" height="10" fill="#161b22"/>
<text x="18" y="24" font-size="11" fill="#808080" font-weight="600" letter-spacing="1.5" class="mono">LEETCODE  ›  MAIN</text>
<text x="477" y="24" font-size="11" fill="#ffa116" font-weight="600" text-anchor="end" class="mono">@Mozzy_11</text>
<line x1="0" y1="38" x2="495" y2="38" stroke="#2d2d2d"/>
<circle cx="82" cy="103" r="54" fill="none" stroke="#2d2d2d" stroke-width="10"/><circle cx="82" cy="103" r="54" fill="none" stroke="#ffa116" stroke-width="10" stroke-dasharray="32.09 307.20" stroke-linecap="round" transform="rotate(-90 82 103)"/>
<circle cx="82" cy="103" r="40" fill="none" stroke="#2d2d2d" stroke-width="4"/><circle cx="82" cy="103" r="40" fill="none" stroke="#00b8a3" stroke-width="4" stroke-dasharray="112.38 138.95" stroke-linecap="round" transform="rotate(-90 82 103)"/>
<text x="82" y="97" text-anchor="middle" font-size="21" font-weight="700" fill="#ffffff" class="mono">331</text>
<text x="82" y="115" text-anchor="middle" font-size="9" fill="#808080" letter-spacing="1" class="mono">SOLVED</text>
<text x="168" y="55" font-size="10" fill="#808080" class="mono">Easy</text><rect x="168" y="60" width="268" height="8" rx="4" fill="#2d2d2d"/><rect x="168" y="60" width="119.8" height="8" rx="4" fill="#00b8a3"/><text x="444" y="68" font-size="10" fill="#ffffff" font-weight="600" class="mono">148</text>
<text x="168" y="93" font-size="10" fill="#808080" class="mono">Medium</text><rect x="168" y="98" width="268" height="8" rx="4" fill="#2d2d2d"/><rect x="168" y="98" width="119.0" height="8" rx="4" fill="#ffa116"/><text x="444" y="106" font-size="10" fill="#ffffff" font-weight="600" class="mono">147</text>
<text x="168" y="131" font-size="10" fill="#808080" class="mono">Hard</text><rect x="168" y="136" width="268" height="8" rx="4" fill="#2d2d2d"/><rect x="168" y="136" width="29.1" height="8" rx="4" fill="#ef4743"/><text x="444" y="144" font-size="10" fill="#ffffff" font-weight="600" class="mono">36</text>
<line x1="0" y1="165" x2="495" y2="165" stroke="#2d2d2d"/>
<text x="18" y="183" font-size="10" fill="#808080" class="mono">leetcode.com/Mozzy_11</text>
</svg>